<?xml version="1.0" encoding="UTF-8" standalone="no"?>
<!-- Created with Inkscape (http://www.inkscape.org/) -->

<svg
   width="12.989727mm"
   height="13.46964mm"
   viewBox="0 0 12.989727 13.46964"
   version="1.1"
   id="svg1"
   xmlns="http://www.w3.org/2000/svg"
   xmlns:svg="http://www.w3.org/2000/svg">
  <defs
     id="defs1" />
  <g
     id="layer1"
     transform="translate(-160.60208,-110.59584)">
    <path
       class="st8"
       d="m 166.9196,112.72307 c 0,0.58738 -0.47625,1.06363 -1.06362,1.06363 -0.58738,0 -1.06363,-0.47625 -1.06363,-1.06363 0,-0.58737 0.47625,-1.06362 1.06363,-1.06362 0.58737,0 1.06362,0.47625 1.06362,1.06362 z"
       id="path11"
       style="fill:#3366cc;stroke-width:0.264583" />
    <rect
       x="168.10229"
       y="110.59583"
       class="st8"
       width="1.1218332"
       height="5.6144581"
       id="rect11"
       style="fill:#3366cc;stroke-width:0.264583" />
    <path
       class="st8"
       d="m 166.68677,124.06047 c -1.27794,-0.10054 -2.43946,-0.52387 -3.42106,-1.24619 -0.10584,-0.0767 -0.20638,-0.14023 -0.2249,-0.14023 -0.0185,0 -0.24077,0.17727 -0.50006,0.39159 -0.25665,0.21431 -0.49477,0.40746 -0.53181,0.42862 -0.20903,0.11642 -0.49478,-0.0503 -0.49478,-0.28839 0,-0.0609 0.0794,-0.30957 0.2593,-0.80169 0.14287,-0.39158 0.25664,-0.72496 0.25664,-0.74083 -0.003,-0.0159 -0.0767,-0.127 -0.16404,-0.24871 -0.89429,-1.23032 -1.34673,-2.74109 -1.25148,-4.191 0.0635,-0.94192 0.25929,-1.70127 0.65617,-2.5109 l 0.14816,-0.30162 0.16934,0.0132 c 0.0926,0.008 0.34925,0.0291 0.56621,0.045 2.6326,0.20903 5.73352,0.24078 8.48254,0.0926 0.48419,-0.0265 1.50812,-0.0979 1.8071,-0.12436 0.36248,-0.0344 0.31486,-0.0556 0.45773,0.2249 0.7329,1.4605 0.88635,3.10885 0.43921,4.69371 -0.20108,0.71173 -0.55033,1.42875 -0.99483,2.03729 -0.0953,0.13229 -0.17463,0.254 -0.17727,0.27252 0,0.0185 0.10847,0.33867 0.24606,0.71173 0.13758,0.37306 0.254,0.70908 0.26458,0.74613 0.0185,0.082 -0.0106,0.20637 -0.0635,0.26987 -0.10054,0.12171 -0.28839,0.16669 -0.41804,0.10054 -0.0344,-0.0159 -0.27252,-0.20902 -0.53446,-0.42862 -0.25929,-0.21961 -0.48683,-0.39688 -0.50535,-0.39688 -0.0159,0 -0.14023,0.0794 -0.27517,0.17463 -0.90223,0.64558 -1.88383,1.02923 -3.00302,1.17475 -0.24606,0.0344 -0.9816,0.0582 -1.19327,0.0423 z"
       id="path12"
       style="fill:#3366cc;stroke-width:0.264583" />
  </g>
</svg>
